<svg width="18" height="18" viewBox="0 0 18 18" fill="none" xmlns="http://www.w3.org/2000/svg">
<path d="M17.1008 18L13.3723 14.2715C12.6007 14.8768 11.7546 15.3403 10.834 15.6618C9.9135 15.9833 8.9933 16.144 8.0734 16.144C5.8323 16.144 3.9265 15.3592 2.35589 13.7896C0.7853 12.2199 0 10.3157 0 8.0768C0 5.838 0.78482 3.9321 2.35446 2.35929C3.9241 0.78643 5.8284 0 8.0672 0C10.3061 0 12.2119 0.78528 13.7847 2.35585C15.3576 3.9264 16.144 5.8323 16.144 8.0734C16.144 9.0526 15.9734 10.0025 15.6321 10.923C15.2908 11.8436 14.8373 12.66 14.2715 13.3723L18 17.1008L17.1008 18ZM8.072 14.9095C9.9911 14.9095 11.6105 14.2497 12.9301 12.9301C14.2497 11.6104 14.9095 9.9911 14.9095 8.072C14.9095 6.1529 14.2497 4.5336 12.9301 3.214C11.6105 1.89436 9.9911 1.23454 8.072 1.23454C6.1529 1.23454 4.5336 1.89436 3.214 3.214C1.89438 4.5336 1.23458 6.1529 1.23458 8.072C1.23458 9.9911 1.89438 11.6104 3.214 12.9301C4.5336 14.2497 6.1529 14.9095 8.072 14.9095Z" fill="black"/>
</svg>
