<svg width="22" height="22" viewBox="0 0 22 22" fill="none" xmlns="http://www.w3.org/2000/svg">
<path d="M4.33855 17.1158C5.3851 16.4241 6.4483 15.9102 7.5284 15.574C8.6085 15.2379 9.7657 15.0698 11 15.0698C12.2343 15.0698 13.3915 15.2379 14.4716 15.574C15.5517 15.9102 16.6149 16.4241 17.6615 17.1158C18.4292 16.3213 19.0225 15.4022 19.4414 14.3587C19.8603 13.3151 20.0698 12.1956 20.0698 11C20.0698 8.4869 19.1858 6.347 17.4177 4.58029C15.6497 2.81358 13.5083 1.93023 10.9933 1.93023C8.4784 1.93023 6.3391 2.81358 4.57558 4.58029C2.81202 6.347 1.93023 8.4869 1.93023 11C1.93023 12.1956 2.13968 13.3151 2.55858 14.3587C2.97749 15.4022 3.57081 16.3213 4.33855 17.1158ZM11.0007 12.5116C10.0014 12.5116 9.1507 12.1608 8.4486 11.4591C7.7464 10.7574 7.3953 9.9069 7.3953 8.9076C7.3953 7.9084 7.7462 7.0577 8.4479 6.3556C9.1496 5.6534 10.0001 5.3023 10.9993 5.3023C11.9986 5.3023 12.8493 5.6532 13.5514 6.3549C14.2536 7.0566 14.6047 7.907 14.6047 8.9063C14.6047 9.9056 14.2538 10.7563 13.5521 11.4584C12.8504 12.1606 11.9999 12.5116 11.0007 12.5116ZM11.008 21C9.6207 21 8.3196 20.7429 7.1047 20.2285C5.8897 19.7142 4.82566 19.0005 3.91256 18.0874C2.99948 17.1743 2.28578 16.1107 1.77145 14.8966C1.25715 13.6824 1 12.3791 1 10.9867C1 9.5942 1.25715 8.2954 1.77145 7.0901C2.28578 5.8848 2.99948 4.82566 3.91256 3.91256C4.82566 2.99948 5.8893 2.28578 7.1034 1.77145C8.3176 1.25715 9.6209 1 11.0133 1C12.4058 1 13.7046 1.25715 14.9099 1.77145C16.1152 2.28578 17.1743 2.99948 18.0874 3.91256C19.0005 4.82566 19.7142 5.887 20.2285 7.0966C20.7428 8.3063 21 9.6047 21 10.992C21 12.3793 20.7428 13.6804 20.2285 14.8953C19.7142 16.1103 19.0005 17.1743 18.0874 18.0874C17.1743 19.0005 16.113 19.7142 14.9034 20.2285C13.6937 20.7429 12.3953 21 11.008 21ZM11 20.0698C12.0525 20.0698 13.1072 19.8726 14.1641 19.4783C15.2211 19.084 16.1565 18.5321 16.9705 17.8224C16.1372 17.2545 15.2144 16.8087 14.2022 16.4852C13.1899 16.1617 12.1225 16 11 16C9.8775 16 8.8015 16.1532 7.7722 16.4595C6.7428 16.7659 5.8286 17.2202 5.0295 17.8224C5.8435 18.5321 6.7789 19.084 7.8359 19.4783C8.8928 19.8726 9.9475 20.0698 11 20.0698ZM11 11.5814C11.7305 11.5814 12.3588 11.3183 12.8851 10.792C13.4113 10.2658 13.6744 9.6374 13.6744 8.907C13.6744 8.1765 13.4113 7.5482 12.8851 7.0219C12.3588 6.4957 11.7305 6.2326 11 6.2326C10.2695 6.2326 9.6412 6.4957 9.1149 7.0219C8.5887 7.5482 8.3256 8.1765 8.3256 8.907C8.3256 9.6374 8.5887 10.2658 9.1149 10.792C9.6412 11.3183 10.2695 11.5814 11 11.5814Z" fill="black" stroke="black" stroke-width="0.2"/>
</svg>
