<svg width="21" height="22" viewBox="0 0 21 22" fill="none" xmlns="http://www.w3.org/2000/svg">
<path fill-rule="evenodd" clip-rule="evenodd" d="M13.6272 7.75318V4.31565C13.6272 2.41717 12.0882 0.878148 10.1897 0.878148C8.29128 0.878148 6.75218 2.41717 6.75218 4.31565V7.75318H5.98828V4.31565C5.98828 1.99529 7.86938 0.114258 10.1897 0.114258C12.5101 0.114258 14.3911 1.99529 14.3911 4.31565V7.75318H13.6272Z" fill="black"/>
<path fill-rule="evenodd" clip-rule="evenodd" d="M5.875 4.31597C5.875 1.93233 7.8073 0 10.1909 0C12.5746 0 14.5069 1.93233 14.5069 4.31597V7.8681H13.5139V4.31597C13.5139 2.48078 12.0261 0.99306 10.1909 0.99306C8.3557 0.99306 6.868 2.48078 6.868 4.31597V7.8681H5.875V4.31597ZM10.1909 0.22917C7.9339 0.22917 6.1041 2.05889 6.1041 4.31597V7.6389H6.6389V4.31597C6.6389 2.35421 8.2292 0.76389 10.1909 0.76389C12.1527 0.76389 13.743 2.35421 13.743 4.31597V7.6389H14.2777V4.31597C14.2777 2.05889 12.448 0.22917 10.1909 0.22917Z" fill="black"/>
<path d="M7.51621 8.89971C7.51621 9.53251 7.00321 10.0455 6.37041 10.0455C5.73761 10.0455 5.22461 9.53251 5.22461 8.89971C5.22461 8.26691 5.73761 7.75391 6.37041 7.75391C7.00321 7.75391 7.51621 8.26691 7.51621 8.89971Z" fill="black"/>
<path d="M15.155 8.89971C15.155 9.53251 14.642 10.0455 14.0092 10.0455C13.3764 10.0455 12.8633 9.53251 12.8633 8.89971C12.8633 8.26691 13.3764 7.75391 14.0092 7.75391C14.642 7.75391 15.155 8.26691 15.155 8.89971Z" fill="black"/>
<path fill-rule="evenodd" clip-rule="evenodd" d="M2.59904 6.17715L1.12673 20.9002H19.0035L17.5311 6.17715H2.59904ZM2.36931 5.07715C1.9346 5.07715 1.57061 5.40655 1.52736 5.83915L0.00428145 21.0699C-0.0455286 21.568 0.345631 22.0002 0.846241 22.0002H19.2839C19.7846 22.0002 20.1757 21.568 20.1259 21.0698L18.6028 5.83915C18.5596 5.40655 18.1956 5.07715 17.7609 5.07715H2.36931Z" fill="black"/>
</svg>
